{
    "asset" : {
        "generator" : "Khronos glTF Blender I/O v1.7.33",
        "version" : "2.0"
    },
    "scene" : 0,
    "scenes" : [
        {
            "name" : "Scene",
            "nodes" : [
                0
            ]
        }
    ],
    "nodes" : [
        {
            "mesh" : 0,
            "name" : "Suzanne"
        }
    ],
    "materials" : [
        {
            "doubleSided" : true,
            "name" : "Material.001",
            "pbrMetallicRoughness" : {
                "baseColorFactor" : [
                    0.7612724900245667,
                    0.5813313126564026,
                    0.41983750462532043,
                    1
                ],
                "metallicFactor" : 0,
                "roughnessFactor" : 0.4000000059604645
            }
        }
    ],
    "meshes" : [
        {
            "name" : "Suzanne",
            "primitives" : [
                {
                    "attributes" : {
                        "POSITION" : 0,
                        "NORMAL" : 1,
                        "TEXCOORD_0" : 2
                    },
                    "indices" : 3,
                    "material" : 0
                }
            ]
        }
    ],
    "accessors" : [
        {
            "bufferView" : 0,
            "componentType" : 5126,
            "count" : 974,
            "max" : [
                1.3128904104232788,
                0.915090024471283,
                0.8277229070663452
            ],
            "min" : [
                -1.3164130449295044,
                -0.9678518176078796,
                -0.7590078115463257
            ],
            "type" : "VEC3"
        },
        {
            "bufferView" : 1,
            "componentType" : 5126,
            "count" : 974,
            "type" : "VEC3"
        },
        {
            "bufferView" : 2,
            "componentType" : 5126,
            "count" : 974,
            "type" : "VEC2"
        },
        {
            "bufferView" : 3,
            "componentType" : 5123,
            "count" : 5628,
            "type" : "SCALAR"
        }
    ],
    "bufferViews" : [
        {
            "buffer" : 0,
            "byteLength" : 11688,
            "byteOffset" : 0
        },
        {
            "buffer" : 0,
            "byteLength" : 11688,
            "byteOffset" : 11688
        },
        {
            "buffer" : 0,
            "byteLength" : 7792,
            "byteOffset" : 23376
        },
        {
            "buffer" : 0,
            "byteLength" : 11256,
            "byteOffset" : 31168
        }
    ],
    "buffers" : [
        {
            "byteLength" : 42424,
            "uri" : "data:application/octet-stream;base64,"
        }
    ]
}
